# xmcd
#
# Track frame offsets: 
#        150
#        28530
#        52720
#        78497
#        116820
#        135337
#        160840
#        179802
#        211047
#
# Disc length: 3235 seconds
#
# Revision: 3
# Processed by: cddbd v1.5.2PL0 Copyright (c) Steve Scherf et al.
# Submitted via: ExactAudioCopyFreeDBPlugin 1.0
#
DISCID=6e0ca109
DTITLE=Manhattan Jazz Quintet - Blue Bossa
DYEAR=2003
DGENRE=Jazz
TTITLE0=Samba De Orpheus
TTITLE1=Route 66
TTITLE2=Englishman In New York
TTITLE3=Aqua de Beber
TTITLE4=No More Blues
TTITLE5=Don't Know Much
TTITLE6=Blue Bossa
TTITLE7=Wave
TTITLE8=Amblin'
EXTD=YEAR: 2003
EXTT0=
EXTT1=
EXTT2=
EXTT3=
EXTT4=
EXTT5=
EXTT6=
EXTT7=
EXTT8=
PLAYORDER=
